<svg xmlns="http://www.w3.org/2000/svg" width="640" height="400" viewBox="0 0 640 400">
  <defs>
    <linearGradient id="g" x1="0" y1="0" x2="1" y2="1">
      <stop offset="0%" stop-color="#0b1518"/>
      <stop offset="100%" stop-color="#071012"/>
    </linearGradient>
    <linearGradient id="f" x1="0" y1="0" x2="1" y2="0">
      <stop offset="0%" stop-color="#9fb4c4"/>
      <stop offset="100%" stop-color="#6a8496"/>
    </linearGradient>
  </defs>
  <rect width="640" height="400" fill="url(#g)"/>
  <g opacity="0.25" fill="none" stroke="#2edcc8" stroke-width="1">
    <path d="M0 120 C80 80 160 160 240 120 S400 80 480 120 S600 160 640 120"/>
    <path d="M0 220 C80 180 160 260 240 220 S400 180 480 220 S600 260 640 220"/>
    <path d="M0 320 C80 280 160 360 240 320 S400 280 480 320 S600 360 640 320"/>
  </g>
  <ellipse cx="300" cy="200" rx="170" ry="70" fill="url(#f)"/>
  <polygon points="450,200 560,130 560,270" fill="#6a8496"/>
  <polygon points="280,145 330,90 350,155" fill="#9fb4c4" opacity="0.85"/>
  <circle cx="200" cy="185" r="10" fill="#e8f6f4"/>
  <circle cx="203" cy="185" r="5" fill="#0a0a0a"/>
  <text x="320" y="360" text-anchor="middle" fill="#7cf0e0" font-family="monospace" font-size="22">Hamsi</text>
</svg>